# xmcd
#
# Track frame offsets:
# 150
# 13976
# 31174
# 44862
#
# Disc length: 776 seconds
#
#
# Revision: 0
# Processed by: cddbd v1.5.1PL2 Copyright (c) Steve Scherf et al.
# Submitted via: Nero 7, 0, 5, 4 
#
DISCID=31030604
DTITLE=Lesley Bogaert, Joy Fleming and Brigitte Oelke - Power Of Trust (EP)
DYEAR=2001
DGENRE=blues
TTITLE0=Power Of Trust (Eurovision Mix)
TTITLE1=Power Of Trust (Unplugged)
TTITLE2=We Can Do It Better (Jam Version)
TTITLE3=Power Of Trust (Instrumental)
EXTD=
EXTT0=
EXTT1=
EXTT2=
EXTT3=
PLAYORDER=
